<mxfile host="app.diagrams.net" agent="Mozilla/5.0 (X11; Linux x86_64) AppleWebKit/537.36 (KHTML, like Gecko) Chrome/131.0.0.0 Safari/537.36" version="25.0.0">
  <diagram id="C5RBs43oDa-KdzZeNtuy" name="Page-1">
    <mxGraphModel dx="1362" dy="793" grid="1" gridSize="10" guides="1" tooltips="1" connect="1" arrows="1" fold="1" page="1" pageScale="1" pageWidth="827" pageHeight="1169" math="0" shadow="0">
      <root>
        <mxCell id="WIyWlLk6GJQsqaUBKTNV-0" />
        <mxCell id="WIyWlLk6GJQsqaUBKTNV-1" parent="WIyWlLk6GJQsqaUBKTNV-0" />
        <mxCell id="v64UHi4T5bfzc9dEQ9kJ-3" value="" style="shape=image;verticalLabelPosition=bottom;labelBackgroundColor=default;verticalAlign=top;aspect=fixed;imageAspect=0;image=data:image/png,iVBORw0KGgoAAAANSUhEUgAAAUAAAADBCAYAAAC+C2ljAAAACXBIWXMAAA7EAAAOxAGVKw4bAAAAJnRFWHRDcmVhdGlvbiBUaW1lAHPhYiAzMCBub3YgMjAyNCAxMjoxMjowOCkT4moAAAAZdEVYdFNvZnR3YXJlAGdub21lLXNjcmVlbnNob3TvA78+AAAgAElEQVR4nO3deXhMVwPH8e8sCVklEcQesQeJhJDFElJbiH3XVqvV4kVRiqK0qlTRarVqbSmlalfUvostsdVOIiFo9j0x23n/sEUymomGpp3zeR7P087Mvffce8/9zbnn3MxRCCEEkiRJZkj5TxdAkiTpnyIDUJIksyUDUJIksyUDUJIksyUDUJIksyUDUJIksyUDUJIks5VvAIr0aNoPOMaKzJdRnL9JH8H3nbz5YL/2ORa+z9mZIfRbfBN9zpfTDzIx+G3W3TM8V5Gyzy/hnaBG+Pr3ZP5F3XOtQ5KkFyPfAFQUc2RwP1d8LAu2Yu3V89QcfYFT+vw/W2iUzjR9Zyydq6sKvKiI3cS839zo38uVp5a2DeDN9nEsXHwaTYHXquPc2iVcbDybfUfXMNhdXeA1SJL04uR/C2xhR4cgF2r+G65dhT112vfCv3xB7+wNRG9azYVGnWhql/s9FVVCOlBiyyqOFLgVLEhPy8K5QjkK+P0hSdJL8OykEBpWfbsL1/9txeb1XLfA+hQ+GruDbivO0/njfVQfsosOW5PJBNDFMuqDHVSfc5PIe5F0fG8HrsP2MOJcfreQWg5/2IgWXXoR6OlFj0mfMbxFXTxbTmBvkgDdFVaP7EZLb3fq1PagWffxrLuW/ahARP7Yn+Z+DfGs5pnrFvjBetuO+IwPX+9KO/+GtB66msicd6MiniP7rlDHrwHFjR2kco3xsT3MvjMFvbUWGAx6FErZ1SpJRdGzr0yFJX3+14rIz+sRaKz1Z8gmPKMUiz9qwcUPKxG38QqbMwB1aebMbMO1Ua5UcanC5rltuPlNEF95mBICArXPWDYtCCF27SUCftnPR66/s+l4NqCluPtA5u0I49wfB/iy0Xk+HrucmwYAFVXeWMaBw2sYXMfY7a+OiIvQY/56tu/5lqYXZrMoNMcNre46lyJKUqWKDQpjxVJXoWrlZK5ciaUgPYEi4wJhlwy4lCspR5skqQh6/utSYUmQb2mcFWDh4oR3sUyuJ/7d31VQUbZyRWwqVMLF2RVXJwcqlC9OUnw6Ql2XzgPb4l7KCpXKkfpd21Il6hpRJvUxqqjcsj31bAArD7xqpBMdlcLj0oo00jKssLE2Gn9AMWyslaSnpWPaHhq4+8tAGnt1ZkXxgQxuY288WCVJ+kf9jQBUYfOoY0uhwEIp0D7fQGnOlaJSKVEoVahUalSAUq1Cr9chdHfY9+VgurXww9/Pl2Z9v+dKtgatSYmkwMrG6mEIqVCrFQ/W+fhtO+xsssjIeNbKssnINGBrZ2tikCkp22sRx06soEvKMpYf+jcMoUuS+XmBd2YPoqKwfmsrdftU3t9ehhG/HORo6DEOrnyH6oU1MKOuSi23BCJvZhgvr+4m16McqFGjdIEOmNKhEQF1NdyMjC/QrbMkSS/HCwtApZ0ljilpXEwrjAgUaDPS0DtXo7qzBYg0zqzdytXCeqxO4UxA8xr8ERpOtpG3DTHHOJkeQIv6FgVdMRaWFui02kL7IpAkqfA8MwD1t67R6r0dVBl7nv1ZsYz8YAeu7x3lyxjTLmWVS0XG+GYz6YPtlB+yi2Fn/04bSIFTh/cZZrOMPq060rPXYFYr6jxpAeqO83mwPwFNejL/jwS2jmxKgF9Thq2NMzF4VFTq3Js6JzZyKC33e3oitmwhpUMfmtgUvNxKJQiDbP9JUlGkkL8I/ch9zs7sxkyneSx/O8fD0OkHmdhzOV5LF9LNpaANZh3nZ7bm7duj2TE3GAc5EiJJRYoMwBdMH72JKaPnsu+2M/0W/yz/GkSSihAZgJIkmS35fK4kSWZLBqAkSWZLBqAkSWZLBqAkSWZLBqAkSWZLBqAkSWZLBqAkSWZLBqAkSWZLBqAkSWZLBqAkSWZLBqAkSWZLBqAkSWZLBqAkSWZLBqAkSWZLBqAkSWZLBqAkSWZLBqAkSWarSAagSI+m/YBjrJDT6UqS9AIVyQBUFHNkcD9XfCzz/+wTgiub91N+4Z9oXlTBJEn6TymaM/RY2NEhyO6fLoUkSf9xRasFKDSs+nYXrv/bis3rT98CGxIiaPHWEd5bc5KWE3dTcdghJl7QIABdxBWaD99J0KYUYo+GUWPoDlxHhLE6zxy/uWm58n03Al5fSbQeQMPFbzoRMGA1t/V/vaTu7HRa+Y7l0OOZ1HWcnhZIkw8Pcz+frepvLOF1v4b4+jz4513LlQYfHECbX3ElSSpcoggypEWJ4DdDxU8ZT17Tx98Qga/+JjrvzxQ6YRC3dh8RJT++Lm4aHi8lLm/aJ8otuCfuF2Rj2hvixz5+4tUfI0T6udmio/+7YuNdvQnLnRezW/mIsfsyH/5/mPgs0F9MDi3Q1oU+dqsYEdBCTDqYLB7virgv9oysI6oGThdntQVanSRJBVC0WoD5UZekm48VKhS4VHWkQnwGNw1/d51uvDpzOMUWvk3PYeupOmkqHU2ZAF1dm/btS3Lgt1AyAd257ew2tKZDgwJ0XOqiWD3mYyK6fsn4piV4Mm+6EpvSrrhVKkkxOZm6JL0w/64AVKqwsXjwnwqVErXBgL4QZjVWlQ+mR4MErmhb0LN5KUzLHBXV2neg9IEthGZoOb9tF4rWIdS3MHWr97m0YCTzNO8yZ7gnVk+9p6bxuN/YuWwgNVUF2xdJkkz37wrAfChQUPBp3gXJB6cz83wT+tXcw9S5YZj69I2qSnvaVzzE1n1H2b5HResQDxNHlQTpJ75g1IpSfDDrDaoWzaEoSfrP+w8FoAJHe0sy76Y+HNAwjYjfwdSJJwicPp3JMz+i5pYxzDqaRs4c1V3+lakT5rArJtf9tqoSwR1cOTD7Y7ZZtqO9e64kE/Ec+m4Ck386+9SjOSJ+F5+M3oXXtOl0KmfsFOi5tW0Wk6Zt4HoB9kWSpIIpUgGov3WNVu/toMrY8+zPimXkBztwfe8oX8aY1qxzblCNoaoIAgZvp8LwU6zKbxTYcI8tk6Zwoe10RvnaoXRuw8QpXuwZ9ykHkp5sUx99kF9+3sGl9NzlUFKubQi1bkdg2yaYmrlbcoYkzm9dydrQGHLmmPbMNnbcimHLiOZ4e9TDy8OTlh8fyTEKLLh3cj2rNocTXwi3+JIkGacQouA3jeZFx6U5wXQ/3IPffh1Ildx9chk7GNXsK1x//o3huTvs0rfwP99PsZ+3m+mBBXiu0XCXn/o05yfvX9k61hOTuxUlSSqQItUCLJIM8Zw6lUHIsN55ww8d0RtWcLByZ0Kq5R2t0J47zsVab/FO0wI+1J0ZxvHoZgwa4CHDT5JeINkCfF66k8xo/TorsrwZ8u0Chnjb/tMlkiSpgGQASpJktuQtsCRJZksGoCRJZksGoCRJZksGoCRJZksGoCRJZksGoCRJZksGoCRJZksGoCRJZksGoCRJZksGoCRJZksGoCRJZksGoCRJZksGoCRJZksGoCRJZksGoCRJZksGoCRJZksG4EOG2N180tkHT/faeA9YRexTPxMrSNs/jvbvrieu0H8+1kDWnKYcfWsbf3eO96dotnO5QhNuFfK0cuLkeE7UHUeqNv/PSoCIZ/OQNozbk4r85eGiRwYgAHoi1nzJdtdPOXThEuFL+1A65+zo+gh+/voEvm+3p1TO1++v44JzD2LTorgdVIWrux9OfplyktuvBxLmE8ileafQFUrN15G9aQznfBsS3nEs8VG6wlgpiD9J+qQ74T6NOfu/FWRmF3D5Zx2D/GiusmZEOxq518LTuyWTduc3hZ9p9Le3MblrIzxq16ZBs/+xLvdUps9FkHjoC14LqEud2h406beIy6YefoUzbd9swul5K4iQU5wWOTIAATAQeyeBUm5VsFHkfVf3xxrWJb9CR69iJqxLT9biD0lsuBivI4uw/W0i9yIL4SLM2knU9EwqbD9BvcEpRH++t1BajOLkXCIvdaXusb1UcVxA5LqEQlhr/rSHFzDzUlO+P3GJ04d+ZEDd4oWwVh3nl3/B/qqfsf+PixxZMxrfEkZOaEEZoln35c9YjdjJ2YthbP60DS5558B6JkuvjrRMXcva84X0pSUVmiIWgHru7prGq8088ahThwZNOvPxjrgntw4Zl1k7oRct6tembr1GdBiygis6gCzCF75D5yae1K1ViwYt+jF9xy0eVDcthz9sRNsRn/Hh611p59+Q1kNXE/mwLmbvHk8Lv6YM33CPywv70MzPlxZD1+WYj1fPjf0HSWngT63c8/7+FcWjC+9J80+kpz0ILW0kce81I7SkI0c9ehJzLsv0dT5c7ZOpXLLRp+sAge7YbP6o58IhZzdOj9mGxpSEFDnLmoM2Hf19gCwylrxJWAUnDldsxJWfbxTKrZzC1hZbtQ02xRUobSpRxeXR/HdarnzfjYDXVz6c4F7DxW86ETBgNbfzbUEpsLGzRmlli41KQXGXKpS3fbhvmfsY2yiIWTlCKHPPKBq3ns3F/HJJYYWtjZriNraoFRY4VamEw+NDpmX/hKb4+TTE16chvg3qUNOtK0tv5Tj46tr4N0zl4L5ryEZgESOKEu1x8UkTPzF6R5zQCb3IvHtGHL+cIgxCCGFIFfvH+olG/ReKMwlaIbRJ4o8tu8VlrRBCpIkTv/wg9l9NFPcNGnFvz3gRVHeAWB9vEEJoxKHxXqJ6q2kiPF0IkXlMfBLYUIw/eD/HhjXi0HgfEfL1FaHLU6hM8dvg2qLz/Ii87+kiROJPu0WmJl2kb1stkmP0D15POiai+zUTJxs0Fxe/Pi6yr+4Ut0e/IS4OXyrSsvUie2mIOFzvPZHwp1boI38WF1yLicMDtgr9Xx4cjchaN1KcbeQtTrUfI+KuxYjUVZ+IK/0GiJs77ghD9lFx3b2cODvvotDpkkTKFD9x0MpfRF/Lu0dP0d8ViVO6iDDvhuLMoGUi/c4fIu6L4eJi/7Ei9oZOGC5+LsJKBYjIE8nCkH5B3GpXWuyvNVakaPI5BvnQx20Qg+p7igGrovIeV+0N8WMfP/HqjxEi/dxs0dH/XbHxrinrNYjUA+NE09qdxXcX7+d6L0scGt9YvDL9jNAKIYTIEHtGNhDtv7ps5JznliXOzWwjagdNFcfT/vpzf3zdSfj1/UFEaHO+rhdRCzuLugM3ivTci2jDxGdNKwuvMfuFJvd70gtXxFqAKlSKLP68fp07aQasXDxpVNP+QaMn6wgbtlvRc/SbeDqpQe1AnQ5B1FQD2OLT8w2aV3fEUmFBmWadae4QydXHTQYVlVu2p54NYOWBV410oqNSTGvJiEzS0wxY21jnbS6rquD4ahBWFjbYtOtFiXIPP+HQmIorduLx7VsU/2MukctuYTt8PrXnvoltsQxSth+leJ93cSytRunanfJdK5lQEAuKd51DvV0/4/qKjrhPZpBk1Q23ZUuo3LosXN5BYkIQ5d6ojUrlgP3gtyhhacJqlS44Tl6P57qZlHI4QNQn69G3mECtH2dQyk2BZu8OMhq+SbmGJVDYuFP23TaoczYYn3UM/ormAt+/Mw/L/72D5fejWHJZA+i4sOoz1l7WgdqNV2cOp9jCt+k5bD1VJ02lo0v+69VHr2LEx3foPboaG9+fxcl0QB/Jlpk/EJ5VnEYhrdDs2MofOiAzlG2HXAgOrsZf380K4n8fx+jjgYxvdowJU3aRIMAQu5fv5h8gQTz5XFro57y/qizjZr1OlafuFhRY21hjSE8jM0+lK45TJTeqlLKiEG7WpQIqWgGo9mbwl+9R6cQn9PGrR6Pgofx4Lh0BiPQ44jQulDfa+XKfiC2fMrBDM5r4+RLQdBBr7t5H93ikUoGVzaMKpkKtVqDX60wLQIU1trZKMtIzTO9z+/N3bvZ/h+ijTpSZOhHHlF+43rU1F784glafijZJj0XZ0g/Lo8TCpZQJlV9L+uIhXBq9Cq3v+7i9XZa0L/pzNmQEsdc1iMQE9I4uWDwKvRIuWFqbcEnpI4gd8xrXvr+K1TufUdEjgruDO3B24CLSMwxoE5JQli7zOPSUZcpi8TdrTfahJSwv3p8Jbw3m0w8rsXrkLE6ma7h5aDcXH46FqMoH06NBAle0LejZ3JTjo+PcT4uI6/gh7w6YzFT//YybsosE/R1ObD9DghIsG3aklWEH285qyTy6lSMV2tPOLZ/OPP1N1i0Iw2/0KF4b9wVdI6Yw7tdb6OLP8PvxO48/JuJ3MOWDfTScPp2QsrkPkCAjIwOlrR15TonanXdX7GXdmEYUpIdFKhxFKwBR4NjgDT79cRuHzxzkmyYRzJ65mXgBCttSOFveI+Zu3l4UQ8wqJk48Tb2pm9gfeowjh+bTo4yykB47sKRarcrcvRGFyV3YpYOovGQZ1UYGY7H7Y2LsPqF+6M84nZzA7XPWWDip0Sc/aoEK9MmmPCJhgc3rc3FfOAWXhn9yZ1I4JX8Jpf5kG2ImrUfn5Iw6PRn9o5TOTkaXbcIRUFWm1GfLqDXjXRz4hYiN9ahx6BA1aq0jYmk0amcnRErK4/AXKUno/tboi+B+YiLZtvbYKBSUbDWZj7138cH4Oey66U6DGipAkHxwOjPPN6FfzT1MnRtGpgnrTUpIxtreFgW2NHr/Czpc/ogxMzdyobw3dS0ACy9C2qjYtfUoB7YdpmJweyrnN5ghkklMtsLOVgmWtRn4xdtkfTmCGatOoK5f/0FfoD6aXz+YwrWOc/iwuYORsNYRde02FWtVx5RhNOnlKVoBqL/Bod9OcjtdBwpLLNUK1MWLP/hmtAqgS5sM1sz+kbNJOtCncnn7Pq7qQGRlkGFRlupuDqgxkLB/LbvvFtZTdSqqNm+KfXhoAR59sEDx6Ov8/n0UtnYoVNaorHUYsmxwCA4ge/MmsrRA+inifrth2motHw4UCA0GvQ0qKxUKOxvIyoRabXFyPEDc3kRAz/2Na0m5b9r+KR416bT3EcXsUFmoUdlbYsjSYhnUFpvTG0iIMYBIIGnt7oI91iPiOfTdBCb/dJYHD8gosPMNpG74chaFp2BQlKDJyOHU3L+Y4/V7EVRCgYjfwdSJJwicPp3JMz+i5pYxzDqa9tSXhO7yr0ydMIddjx9zUVO/hR9RqxdwJE4PVp6880FzLi/ZSpkenXhwB62mTkg7im37mNn7XQluVyHXBaDn1rZZTJq2gcePT6pr0iwgk82LtnJLA+qqrzK2SwrLV+no2L0mKjRcXjSSrzLeYtYIb6yNHQPdJUJP2dE0sEbeVl6e4yO9TEUrAEUGV9ZNoIdfPerUDWD4cQ8+GtcBRwWgsKP5R0sY6fI7wwPrUrf+K4zeHIMBUFXtzZheScwJaUO3Hr35YG8J6lUswHMK+VDX60k3h91sPm1SouSgwKLbOJxP9eeUZwti7N+nfGNLLPt9RTWPzVxo0Jjw9jPQVKlasP4fCx/Kj7QlpoUnp/qH4zyxB5bFGlFp8SB0k5pzyr85l/dZY21bsF4lRfX+VPJYz/n6Xpzf4EXlN2ugrDmUGpPtiWnrTXjTHtzT1MCyILXGkMT5rStZGxrzeARUWfE1Zs8O4MLEjrTp0I2e76zFoW9nSu5eyPrI22yZNIULbaczytcOpXMbJk7xYs+4TzmQ9CQC9dEH+eXnHVxKf/SaAqcOnzGveyKzewTRoWs3Xv8ug469a3P6h5+49PDUqd070LZEBLdqBNMmT3+l4N7J9azaHJ7jKQBrAsYvYkjx5Qxo1Zqu3XvwaURzXvO7xc9LjpOuu83+beHEnZtLrwb18PKoh5d3f1bmeP5Qc3oju+170MPTyE2ukeMjvUT/9CjMv4NBpOz7QAS/u17EGv7psvzLpG0WQ+o0EuP2pRbiSrXi4uxWwr3LQhGR/xDu0wyxYvVrdUW/5Xfyjrrr74jlPauLVjPOFN6IrCFObBrcWozd/fBphtxeyPGRTCX7XU2iwD7wc7YG/tPl+PfRnjvOxVpvsbSpXeGt1BDPqVMZhAzrTZUCNvSzL/3M6vM+vDrHJe/tT2YYx6ObMWieBxbGFn4eCmc6freDjs94+4UcH8lkCiGE/BNFyQxo2D26Me/9bkezsYuZ+1oNTHlKSPpvkwEoSZLZKlqDIJIkSS+RDEBJksyWDEBJksyWDEBJksyWDEBJksyWDEBJksyWDEBJksyWDEBJksyWDEBJksyWDEBJksyWDEBJksyWDEBJksyWDEBJksyWDEBJksyWDEBJksyWDEBJkszWfysA9RF838mbD/Zr8/9sQeii2DCqNT7utannNZJduabvMsSuZ0jwOA6mF+5m/1uSude5JOeXJ/3TBflLmt0jaNB1IdHPMangy64HInkNb7oPYEPacyysj2Bp7xBmnXsJc9GJeDYPacO4PcamfzUQtbQPnWaEY2zKMe35WXTpuYAbL2jGqP9WACqdafrOWDpXL+BEEZpdjKrfjaW3jNd63ekfmHu6Cd+FXeL86S9p9dRvqWs4u+g77gS/RYBtjpcNMcS0cePq7kzSJntzavLpByf//kYuOlhwMHAu2QYAHWkT63GgWE1uhBZycL9ghovLudq6Eaea9CRqf6zpC+o1fLkzkQVJz/dj5Ib9wzgW9A3Zab9wwbkHsRnPtRqjVLW6MXZgAE4Fm1CPZ9aDF0hh7c2rE/rhWbzgy6bv+5afivXltbovYWIAhTNt32zC6XkriMgTZEoq93iDatu+YfOfea8/i7qv09t6BfP3Pk/K5++/FYAKe+q074V/+cLdLd29uySUrYqrsYqWeYTVW+xpH1IVk2NX5UrxxG3ERxtAd5b4vYLiZf5lp0LEETtpMRbT99FgTQjpH31DmqnzJqss6VxZwc4bGopao1lVoSk929WhgDOKPl89+LssqxHULwi3gs7gJBLYuWof1ULaUPolVTtLr460TF3L2vNGKoldM0IaX+SXjdF5pwZVlKJVSE0OrdpBwguYvKNIXXX6m9/TtW4X3hvdh87tg2jR5m0Whj+ZENtwazE9PQcxf8UYurfwx9fLh9eWXEOPnsgf+9PcryGe1Txz3QJrOfxhI9qO+IwPX+9KO/+GtB66mkgdIFL4bVRTApqP4ffkM3zdzZ8AP396fHUWHSBif2VoM19aTtpLxskZdPT3JaD5BPbluGvQndvLUWsfGhUkdJUulAxWk/jbLQxnN5LsFoKj3cMrTqSTvuRdTlcrxSGHspzo/CnJcQ+OgLj1LWec23J9Sl/O+NUltFoLIvclPl6t4crPXG1ejcMODhxxb0fE1ls5bjk0JL5bibAx84ns1IDjVSty1H0YiY9bT1qSJ/hxMuQrMgpyu6HMnRQG9GmZD8p7bxeRbWty2LE0x4Onk5L05BvetbIV1eOy2JWZd5XZt1NodyCNxWHJDN6TQPf9aRzMKkCZjDDc+YE+DdvSq30DvAKH8vmkbjR29+a1JVfQAWgP8HFLPwK8alIz1y2w4c4P9K7Tl49nDaFPSCB+ft2YdST56YnajdQDkbCTMc1a8knogzos4rczskkrpp/Mp8mqu8CcNv506tWSBp5tGDdjDCFe7jQdso4YAyAS2fxeUwIae1C7eq5bYN0F5rTxY9DUjxnYPZhAn6YMWHSOpw5f5nH2hVWmcSOHJ/NRiwTWv+VBzyXRPNp1Eb+Gtzx7siwmn/4AXThzQhrj69PwwT+P6lRrMYNzObNOXRv/hqkc3HfNyPzHVnj71+P6/oPE5dmUAofGvlQO28OxQmzpP/bPzsr5NF3kfNHZzV28sfKW0AqDSNw5SjQN/FSEP5ykVR+9SHSvVksET9op7miFENoEEXEz6cl8q7obYn5HLzFmX85ZXTXi0HgvUb3VNBGeLoTIPCY+CWwoxh+8/+Qj93eKkZ5dxZLoPDPFCiGEyNw8UNTtu0LE5ZnYVS/uLusp3Pv/IpLyvJchMravFskxWqEJ2yDiwuIfvJy9QVxwbiaiD84T59p/JWLHNxEXV+8Q1+vUFtePaoR2xyARWilE3DqVIAyaeyJxdAMR2n+j0BqEMETPE6dtyojzy6KFQehF9qJgcbjFNyJLL4TQXRJR/qXEqYmHhUanEfe3DxUnXDqKuzGP9um+SHinrDhYqZOIPp3y8HBdEdmPD1W2iB9QSuyvO0Gkak04WUII/R9LxeWghuKkfzcRueemyDq0RNx4u5+4Mveo0BqSRdybFUXoq6tEVrZW3N8xTJwobiPOLUt8uLRBnAiPF/0vaEXuzWXdShavbEoUq1INQgiDOHAyTvS/oBWPpgA23Dkq/tx2Qeg0N0Ti8t0i04Ty6mOWil51+4u1cXfFyj7VReDHJ0RK+DTRpsNccTXH3ML3d70nvLssEFH6XMtWrScGrokROqEXd1b2E/W7LxW3H3/mWfXAIJIPfiheaTFRHEq6J7YM8RchX5wRmfkVVvuHmN3KR4zelSQuz20naoXME9eT94gxvn3FyhyV0JD0i3ij9ptifWquZYOqiIDRu0WCQQjt1a9Fx3oDxeaUHB+5OFu08xwhdue4BIQwiKRN7+TYd4OIX9NfePVZLu4YvyyeUfZIsfK1RqLTnLO59lMvohZ2FnUHbhTpxhY7M00E+YwVh4xNyKzZK8Z4BYlZ53OfaINIXtNfVK/S5ZnXbn6KVAsQAMuGtA8ujxoFjs074Ju6n/3XcnyVqOrSc1AQZdWA2okqlXN8iz2Tisot21PPBrDywKtGOtFRKUY6ZAtKkJGahsLaBus8hbDGum0vSpRTY+HdGWfvkk+9qyjXHif9t9zYUhnnIPuHr2aQ/NMGVK9PoXwDJxQWZXAY/CrF9vxG6qNGraUfpTpVRIESSx8fit2+TrYeRMxuEi94U3aoPxYqCyxbDaWM6xESDuW8yVSg7jCM8vUfbE/lVoNij2+filFySSzNz3+KnYmzRSvrvEnN37dTa2QDND9MIeZMBcp++RM1hvuh1p4icU9xnAd1o3gxNZZBgynjkXPFCrzdiqO6lclJI3dFKodiNLdVAApqOamJy9A/bjkoyvpRup07Kgs3HF8LwsrU8jpUoqJDSSpUKB70BLcAAB0gSURBVEEFN1dsylekVHIciaZUBIuGtGtbDhVKSnnWx+VOBLcft1aeVQ8UlGg6nmktjzOx92vMuNObGcM9sTKlsKpSVKpkS4VK5She0Y2KtuWpUDKFhEQTRmeUDgS0b4aTAtSuXtS1vs3NuznaXelpZFjZYP3U1a/AIbAj/je38Xu0HkQC+7adoV5IG1xMTon7XJw/knm6QcwZ5pFrPxVY21hjSE8j08jxVljbYpWeRrqxc6GwxtYqg7Q8/SUKVPYuuLmVo8RzTuRc5AJQobanxKNapLTD3iaVxOQcR8XShXLOBS22Aisbq4dBqUKtVqDX6wohABXY2NshMjKMntS/pKyA8+stsAruh6P9o9vfVDT30sn+sS8n69ThRJ06nOwwjyylBv2j226VDapHfZFqCxQ6HUIAyQnoLEph6fDo2Dlj6axHm5Bz5E1FsYrlTfjCMI3+6BwuvzmFBIJx/aQbil2TudimG5G/xyAMSWhTS2JZ6uG5UpbBMleHk8reii52GtbfNpD7slaoFBR7WFC1AgyCv3++VCqUgFKtRq1WolCqUen16E1Zscoa62IPy6a2QP3Ucn9VD2zx7tWRElcjce3ajVomjzmoUCsVKFVKlGoVoESl1KPXmVBYhRXWVopHhcVCpUeXcydt7bDJSicz90G3b07HZrfYvj0KXcJetp+tT0irUibWF0H68ZmMWlWGsbP745bnS0mQkZGB0tbOSGMBREY6mTZ22BjbmMgkPdMGOyODS7ZtZvD77nl0Mz2ln1LkAlBo44lLeXiytAkkpNrhWOLJUVEolYV2AeekQFDwGZKVONeogeOtG0QVeJheSbE+C/D8vB3qRzuksMeijB12Y3fic+ECjS5coNHF6/hHLaNUfiOLDk6otXFoHn1ZGOLRxCuxcLJ/+njl6bN7fiqfodT8aR6Vu9cifdY0tO9uxXvz22imTidZ64SFQwa61IflESnoUnIdYIWSlm6WREVmEfGvnp36L+qB7jrLP1qJTe9OpH73ERvy60/LR2EcJnWlWlQVUUTey10WWwI6tuDe9q2E7drGee+OtCxpYvzF72TK6N14fzadjmWNxYqOqGu3qVirOsWMvJsZGUF81dpUMzKCZPjzBjf11ajpamJTvwCKXACiOcWaZadJ1WcTuXYVh0s0o1n1wt/xpygdcbKP4cr1gveyqj1a4J9xghN/s2I/YI1j3xDufz+F2IspCPToY8KI33QSbT41X1E+CKfaYdz7NhStXotm97f8GeGHUxNTn8nQkDy+ESfazTF9EMTC8mG4GhD3BSrbYiiK26IyZKFXN6RkUDqJG0+jBwxX1hN3Ju9jPtalrWktslkfW4gJmBnG8kkTWZRroOJFMl4PNFxeMIbFlkOZMfUzPu8bx6xxK4nKecsv4jn03QQm/3SWl/BE3gPWjQhsEMXxE3mPj7V/CC1if2HSwrM0DGmJY678013+lakT5rAr537qb7Fu7GSuhMxhQqCj8QaK7hKhp+xoGliDvFdzFuFHzlEtsJmRUWlB8rFQIhu0xNfGyGqNlacAilwAKmx8cE+ZRjsPT7ouUfLW7BE0yO+2QXecz4P9CWjSk/l/JLB1ZFMC/JoybG2caReAuj69h/hwbkwTfHwa02XOGUx9ogPrJvQOSWXblhtGRrcKSoG63WzqjLDkbpeaHHYoxbEWw/jzclb+rV6VOxWWzMF2/2scdyrFyfcu47RgHi4VTD3FAn3sTbJuJ2IocGpY4ThqINpxfpz0G4/2ndE4WdlT8rNFlAwfSLhPAGdHX8ayppEvMqWakCoqQiPuk1DQzT6DyLrK7p9/Zn+EsUdrjTFwd80gAv18aTFmO8nnvqZngC9NQ74gzNSKYKQeZJ39mg+WOzByWh8qqSypPWgm/TO+YuwPV3n8VWBI4vzWlawNjTG5/uivfM+rTXxp0uZTjmUcYmorXwKa9GPJNRPXoHCmdZ8WXN+yg9jcuVHcl5BXtETE+RLcokSeeqePPsgvP+/gUo7OOpEWytYD97ix/A2aeNTDy6MeDTvP5WKOY6c5vZHd9j3o4WmkDqQdYPNxd3p1qZz3ESJDLDu3XKFZ33YYa4waK0+BPNfQyQuii5wvungMF7vu5//ZokR/b50Y1G6sOJD2T5fkX0qTLaZtTxDLUvL/qEmrO/Kh8PV4S6yPzTM0/0I9Vz1I2yyG1Gkkxu1Lzf+zhUl3Qyzu2UF8cTb3xaYTN+a1Fw2GbBV5S6QVF2e3Eu5dFooIXZ43n80QJzYNbi3G7k4Rec+IXtxc0luEfBYmsowsqjk3S3TuPl9cN7q95yxPDjIApSIhKiZDbIrXG7lACkorLs1pK9pMPy3+DdVIc2SCCOy24Lkv4MJmSD0qpgT6iDF7jDysor8rlvfxF2P3vuSwfpZCKI9CiIJ3/b8o+pvf06PTJYacnMsrL+EvdCRJekQQv+ZtWn10EpeQT1k8oyPlX9qftPxzilQASpIkvUxFbhBEkiTpZZEBKEmS2ZIBKEmS2ZIBKEmS2ZIBKEmS2ZIBKEmS2ZIBKEmS2ZIBKEmS2ZIBKEmS2ZIBKEmS2ZIBKEmS2ZIBKEmS2ZIBKEmS2ZIBKEmS2ZIBKEmS2ZIBKEmS2fpvBaA+gu87efPB/ryzj/0tuig2jGqNj3tt6nmNZFeu6bsMsesZEjyOg3kmbn5BEpdxvmQX/kx5SdsrFMnc61yS88uT/umCvDAvvR78HfoIlvYOYda5lzAXnYhn85A2jNuTamSSMgNRS/vQaUY4xqaw0p6fRZeeC7jx92ccM+q/FYBKZ5q+M5bO1Qv4W96aXYyq342lt4xPrac7/QNzTzfhu7BLnD/9Ja2e+rl+DWcXfced4LcIyDkDpSGGmDZuXN2dSdpkb05NPv3g5N/fyEUHCw4GziXbAKAjbWI9DhSryY1QE4PbpjHlZgzEzqpgu1nYDBeXc7V1I0416UnU/ljTF9Rr+HJnIguSnu/HyA37h3Es6Buy037hgnMPYgs+m+kL8Ix6UESl7/uWn4r15bW6L2HuCYUzbd9swul5K4jIE2RKKvd4g2rbvmHzn3mvP4u6r9PbegXz96a9kKL9twJQYU+d9r3wL1+4u6W7d5eEslVxLW7kzcwjrN5iT/uQqnmn9HsWlSvFE7cRH20A3Vni9wqKlylAmYvVouTAYKz/yXlTRByxkxZjMX0fDdaEkP7RN6SZOoWkypLOlRXsvKHh39BYMsnz1IN/ikhg56p9VAtpY2Qe3hfD0qsjLVPXsva8kUpi14yQxhf5ZWN03qlBFaVoFVKTQ6t2kPACJu8oUgGov/k9Xet24b3RfejcPogWbd5mYXja42az4dZienoOYv6KMXRv4Y+vlw+vLbmGHj2RP/anuV9DPKt55roF1nL4w0a0HfEZH77elXb+DWk9dDWROkCk8NuopgQ0H8PvyWf4ups/AX7+9PjqLDpAxP7K0Ga+tJy0l4yTM+jo70tA8wnsy3HXoDu3l6PWPjQqSOgqXSgZrCbxt1sYzm4k2S0ER7sHk56Km2u53saT0FIOHCpVhbDX55Ga8vAIiHhi+9fmWBUXDtnlvQU2XPmZq82rcdjBgSPu7YjYeivHLYeGxHcrETZmPpGdGnC8akWOug8j8XHrSUvyBD9Ohnxl+sToAMrck7Ua0KdlPijuvV1Etq3JYcfSHA+eTkrSk29418pWVI/LYldm3lVm306h3YE0FoclM3hPAt33p3EwqwBlMsJw5wf6NGxLr/YN8AocyueTutHY3ZvXllxBBxhu/8bHfYPwrVuTOnUb0Wn4D5xNe3D0Mk5Oo12T4fweLwBBeugUWjd9n105rkhj9UAk7GRMs5Z8EvqgDov47Yxs0orpJ/NpsuouMKeNP516taSBZxvGzRhDiJc7TYesI8YA6K6wemQ3Wnq7U6e2B826j2fdtWzTt5l5nH1hlWncyOHJvL8igfVvedBzSTSPzpKIX8Nbnj1Zlt+k47pw5oQ0xten4YN/HtWp1mIG53Jmnbo2/g1TObjvmpH5j63w9q/H9f0HicuzKQUOjX2pHLaHYy+ipV9IE9QVCl3kfNHZzV28sfKW0AqDSNw5SjQN/FSEax68r49eJLpXqyWCJ+0Ud7RCCG2CiLiZ9GQqRd0NMb+jlxizT5NjrRpxaLyXqN5qmghPF0JkHhOfBDYU4w/mmDTx/k4x0rOrWBKtN1quzM0DRd2+K0Rcnjkb9eLusp7Cvf8vIinPexkiY/tqkRyjFZqwDSIuLP7By9kbxAXnZiL64Dxxrv1XInZ8E3Fx9Q5xvU5tcf2oRhiubBC3fz4mslO1wpB6Xtxq6yKOf3jy6ekiE34U55w6i3vJOQ/eJRHlX0qcmnhYaHQacX/7UHHCpaO4G/Non+6LhHfKioOVOono0ykPD9cVkf34UGWL+AGlxP66E0Sq1uhhyEP/x1JxOaihOOnfTUTuuSmyDi0RN97uJ67MPSq0hmQR92ZFEfrqKpGVrRX3dwwTJ4rbiHPLEh8ubRAnwuNF/wtakXtzWbeSxSubEsWqVIMQwiAOnIwT/S9oxaOZIw13joo/t10QOs0Nkbh8t8g0obz6mKWiV93+Ym3cXbGyT3UR+PEJkRI+TbTpMFdc1Qmhu7Fd/LghTNxJ0wp92iWxpK+HCJp+5mHZMsWZWcGi2ZBN4l7SQTGpRXMx4UByjnPyrHpgEMkHPxSvtJgoDiXdE1uG+IuQL86IzPwKq/1DzG7lI0bvShKX57YTtULmievJe8QY375iZZxBCO15sWHhdnEhNlPodIni1OftRb0uC0Sk3rRtai/OFu08R4jdT80bahBJm94R3l0WiKiH64lf01949Vku7hi/LJ5R9kix8rVGotOcs7n2Uy+iFnYWdQduFEYm3BTaM9NEkM9YcUhj5E3NXjHGK0jMOp/7RBtE8pr+onqVLs+8dvNTpFqAAFg2pH1wedQocGzeAd/U/ey/luOrRFWXnoOCKKsG1E5UqeyQZ/b6vFRUbtmeejaAlQdeNdKJjkox0iFbUIKM1DQU1jZY5ymENdZte1GinBoL7844e5d86l1FufY46b/lxpbKOAfZP3m9RmfK92lMMTs1Crs6lOnhjebSFSPfmrlKErObxAvelB3qj4XKAstWQynjeoSEQzlvMhWoOwyjfP0H21O51aCYxaP3ilFySSzNz3+Kndq0vVfWeZOav2+n1sgGaH6YQsyZCpT98idqDPdDrT1F4p7iOA/qRvFiaiyDBlPGI+eKFXi7FUd1K5OTRu6KVA7FaG6rABTUclITl6F/fAwUZf0o3c4dlYUbjq8FYWVqeR0qUdGhJBUqlKCCmys25StSKjmORAEqt7b07+xNWVs1StuadA6px71rN3jQrrLCc9hset+bwRu9x3EicAbjmpbIUe+eVQ8UlGg6nmktjzOx92vMuNObGcM9ManrVlWKSpVsqVCpHMUrulHRtjwVSqaQkGgAdV06D2yLeykrVCpH6ndtS5Woa0TpTdxmehoZVjZYP3X1K3AI7Ij/zW38Hq0HkcC+bWeoF9IGF5NT4j4X549knm4Qc4Z55NpPBdY21hjS08g0cuEprG2xSk8j3dhFqbDG1iqDtDz9JQpU9i64uZWjhIWR5UxQ5AJQobanxKNapLTD3iaVxOQcR8XShXLOBS22Aisbq4cVVoVarUCv1xVCACqwsbdDZGQYPal/SVkB59dbYBXcD0f7HFdN/GFuDQjiZI2qHKtajbAJhzBotOQ7eWlyAjqLUlg6PDp2zlg669Em5Bx5U1GsYnkTvjBMoz86h8tvTiGBYFw/6YZi12QutulG5O8xCEMS2tSSWJZ6eK6UZbDM1eGksreii52G9bcN5L7zUagUFHtYULUCDIK/f75UKpSAUq1GrVaiUKpR6fXoBYjE4ywe1YM2Ab4E+PnRYcZxtFot2kcbtaxBl25ViL5qT3DPhtjmCrpn1wNbvHt1pMTVSFy7dqOWyf22KtRKBUqVEqVaBShRKfXodQJ0d9j35WC6tfDD38+XZn2/50q25klZ89umrR02Welk5j7o9s3p2OwW27dHoUvYy/az9QlpVcrE+iJIPz6TUavKMHZ2f9zyfCkJMjIyUNraGWksgMhIJ9PGDhtjGxOZpGfaYGdkcMm2zQx+3z2Pbqan9FOKXAAKbTxxj/q8tAkkpNrhWOLJUVEolYV2AeekQOQfMnkoca5RA8dbNx5++xZs2WJ9FuD5eTvUj3dIQ9LHr3NHvEu9s9fxvXEd76kBKE259B2cUGvj0Dz6sjDEo4lXYuFk//TxytNn9/xUPkOp+dM8KnevRfqsaWjf3Yr35rfRTJ1OstYJC4cMdKmP+i9T0KXk2g+FkpZulkRFZhHxj85OrSV09nB+Eq+xeE8oR0JD2fxBIywQT/qf727mk2+TaN/bntWTlnLtqQH7v6gHuuss/2glNr07kfrdR2zIrz8tHwJI3T6V97eXYcQvBzkaeoyDK9+hes7AyWeb6kq1qCqiiLyXuyy2BHRswb3tWwnbtY3z3h1pWdLE+IvfyZTRu/H+bDodyxqLFR1R125TsVZ1ihl5NzMygviqtalmZATJ8OcNbuqrUdPVxKZ+ARS5AERzijXLTpOqzyZy7SoOl2hGs+qFv+NPUTriZB/DlesF72VVe7TAP+MEJ/5mxX5Ajz41C3W1uhSzUkDWRf5cdSxP68gYRfkgnGqHce/bULR6LZrd3/JnhB9OTUx9JkND8vhGnGg3x/RBEAvLh+FqQNwXqGyLoShui8qQhV7dkJJB6SRuPI0eMFxZT9yZvI/5WJe2prXIZn1sISZgZhjLJ01k0ZFkE1uNejLSsylRpRZliysg+yrrN4bxuLT6aNaMn8693rP4dOoXDLVazAfz/3jquTXj9UDD5QVjWGw5lBlTP+PzvnHMGreSqJy3/CKeQ99NYPJPZzHtiTyBNiMNvXM1qjtbgEjjzNqtXH28ThO2ad2IwAZRHD+R9/hY+4fQIvYXJi08S8OQljjmyj/d5V+ZOmEOu3Lup/4W68ZO5krIHCYEOhpvoOguEXrKjqaBNch7NWcRfuQc1QKbGRmVFiQfCyWyQUt8bYys1lh5CqDIBaDCxgf3lGm08/Ck6xIlb80eQYP8bht0x/k82J+AJj2Z/0cCW0c2JcCvKcPWxpl2Aajr03uID+fGNMHHpzFd5pzB1Cc6sG5C75BUtm25kW8/Xf6scBr7GTabu3HSN5Aznaejq13/cYUSF2ZztmZVjjUYS3LaHq57VeVYzWBuX9KDyp0KS+Zgu/81jjuV4uR7l3FaMA+XCqaeYoE+9iZZtxMxFDiLrHAcNRDtOD9O+o1H+85onKzsKfnZIkqGDyTcJ4Czoy9jWdPIF5lSTUgVFaER90ko6GafQWRdZffPP7M/wtijtcYUp/nQ8VTf8RZtO3Sj94BvSKtW5+GFqiNi+QfMTe3P9EHuWKoq0fuz9ym5YjRzw3MMYRupB1lnv+aD5Q6MnNaHSipLag+aSf+Mrxj7w9Un4WpI4vzWlawNjTGx/ihw6vA+w2yW0adVR3r2GsxqRZ3HLUCTtqlwpnWfFlzfsoPY3LlR3JeQV7RExPkS3KJEnjDTRx/kl593cClHZ51IC2XrgXvcWP4GTTzq4eVRj4ad53Ixx0WkOb2R3fY96OFppA6kHWDzcXd6damc9xEiQyw7t1yhWd92GGuMGitPgTzX0MkLooucL7p4DBe77uf/2aJEf2+dGNRurDiQ9k+X5F9Kky2mbU8Qy1IKaXVHPhS+Hm+J9bF5huZfqOeqB2mbxZA6jcS4fakvrFxG6W6IxT07iC/O5r7YdOLGvPaiwZCtIm+JtOLi7FbCvctCEaHL8+azGeLEpsGtxdjdKSLvGdGLm0t6i5DPwkSWkUU152aJzt3ni+tGt/ec5clBBqBUJETFZIhN8XojF0hBacWlOW1Fm+mnxb+hGmmOTBCB3RY89wVc2AypR8WUQB8xZo+Rh1X0d8XyPv5i7N6XHNbPUgjlUQhR8K7/F0V/83t6dLrEkJNzeeWf/CsHSTI7gvg1b9Pqo5O4hHzK4hkdKV/k/6Tl7ytSAShJkvQyFblBEEmSpJdFBqAkSWZLBqAkSWZLBqAkSWZLBqAkSWZLBqAkSWZLBqAkSWZLBqAkSWZLBqAkSWZLBqAkSWZLBqAkSWZLBqAkSWZLBqAkSWZLBqAkSWZLBqAkSWZLBqAkSWZLBqAkSWbrPxSAGn7/Xw2qVO3H6vgi8CPXhgjubG/OrhlWbJ3TiPDw84Uwa5wkSYXpPxSARYmBzPB3ORvpgefQJFr1DCZj1+tcv2fyZJuSJL0ERSwAdZyd0ZxqVZoxfPpYuvvWoka1evRadA0994nYPJlXm9ejVtUaNGrzNl8fisMAaLYNplYlNwZtzkRoDjDOqyKulerw/m4N6CP4vqMrbg0/5KgWdMc/IsDVlQ7fXH3QIjNEs7hrFdzqv8mnn/aleZ2q1HB/hZmndOhOfUJzV1deeXcsA5rVppZ7c4auup7/nMHiLn9ePI5dg/cpZVscy/LvUcU1kjuX/jBxom5Jkl6GIhaAD+kj2bbhJh4DJjFlbD8aOim4Hz6bd0f8wB/2bRk+bhC+hkN8NXg0a+8aUHv0Z/rsL+jvZYlCXZMen8xh1uxp9K5jZBLmZxCJe1h/sjy9xn3CuLeaUc7i0Ts6Is8m4DP0XfytbrJtzg+c0P7VmgARQXqSNbYlrUkO+5DrkRnYOJclM+E6T+ah1rB3VF2qtZjBOdkwlKR/hOkJ8VLZ0/ajxXzUwe7h/+s4/tEmIkRV3po4nldrq7nvEsHBodv5bX8iPfr40qWHN1b7J7P8ggsNQnrQ3fnhNPKmdrxZ+jFqwee86vLkO0F3CkBFpZD/MbBnLSrumce+PTHczQIsnrUiQGSi1xVHpYol8fxSblcOoZRFcdBmYAAezDaoxKa0K26VSlLMyIz3kiS9eEUzAFWlqFTJKscLOuJjEzDoYljY3YOFj19XkxCbgAFn/u4UpgrbSlQsaaxBrMDG3gYFKtRqJQgDwiCAv0gthTUqdTZ6fQ2qvnGPquhI3pMNFjY5mtxqGo/7jZ1/s9ySJD2/ohmAKFE8lS9qnJwdUajt6PflVDqUeRQjCqwrVnwcKo+WeaqfTaFEqVSAXoceMGRmkiXAMfcmFYrC6w9QuGHrmElMwl1EtcooSCc9/h7WpasV0T4HSTJP/5LrUU39kPZU5ga/L9/EiQuX+ePUPtZ+8w17Yy0ftsWUOJZ0Qqm7wOb5y/j1142cvGsAZUnKuRRHJB9l3Yp1fLd0D8mGfDb3dynKUsa9MWnhXxGfoUV75xsio1wpW7tujnajnlvbZjFp2gauy+djJOkf8S8JQLBqPJZFXw2gTsouvp82hZnfbeCiRS1ql360C2q8Xn2PEHcV55Z+xAfvT2D1BR1gR8tBw2hSJpbtc77lWuk6lPq798v5UmLtvQBP11Oc/qYEO1dtwuaV5VR3ydngFtw7uZ5Vm8MpCo8tSpI5Uggh5OX3TzDc5ac+zfnJ+1e2jvX8yzEVSZJejH9NC/A/JzOM49HNGDTAQ4afJP1DZAtQkiSzJVuAkiSZLRmAkiSZrWcHoO44nwc3prFfO97/NVL+kokkSf85+fQBClJ++x9B39Vi1ZbhVH/hj49IkiS9PPncAiuwKV8Bh6w0MuRQiSRJ/zH59wEqFSgMenkLLEnSf06+AagsXY7SiecIv3n/ZZRHkiTppck/AF268r8eScxp5YHfqO2kv4xSSZIkvQT5/hqMSNrBD2uL8+7m07xXz/qvfgRKkiTpXyXfFqA+JoJb9g3xry3DT5Kk/5b8B0H0OnQWlvLvVSVJ+s8xIQANGArzx0IlSZKKiHxyTUfclSskOpXB6K/FS5Ik/Yvl86dwTen1I/Qd2pFyMgAlSfqPkT+HJUmS2ZLtOkmSzJYMQEmSzJYMQEmSzJYMQEmSzJYMQEmSzJYMQEmSzJYMQEmSzNb/ARdfKWwLcsGyAAAAAElFTkSuQmCC;" vertex="1" parent="WIyWlLk6GJQsqaUBKTNV-1">
          <mxGeometry x="560" y="110" width="397.93" height="240" as="geometry" />
        </mxCell>
        <mxCell id="v64UHi4T5bfzc9dEQ9kJ-2" value="" style="shape=image;verticalLabelPosition=bottom;labelBackgroundColor=default;verticalAlign=top;aspect=fixed;imageAspect=0;image=data:image/png,iVBORw0KGgoAAAANSUhEUgAAAMcAAAEPCAYAAAD2ydCrAAAACXBIWXMAAA7EAAAOxAGVKw4bAAAAJnRFWHRDcmVhdGlvbiBUaW1lAHPhYiAzMCBub3YgMjAyNCAxMjoxMjowOCkT4moAAAAZdEVYdFNvZnR3YXJlAGdub21lLXNjcmVlbnNob3TvA78+AAAgAElEQVR4nO3dd0AUR9/A8e8VCEUQsaMoYgHBEmyAGuyxd41G8UnUJHZN7JpoEqOxlye+scWYxBJ7w0Rj7PooYouiGCtq7EhRacrd7bx/iAjCyRFO5GA+/8Ht7uztzW93Z/Y3syohhECSpHTUb3oHJCm3ksEhSUbI4JAkI2RwSJIRMjgkyQgZHJJkhAwOSTJCBockGWG24BBx/9C6z1FWJphri9kjHq6jt1cfNsf+i5UN4Szr3pZZoUnpPnp66iTFv7pCuKU/OlXimDFhB33PKK+/LH0oM5oEMPmE3tjOcGPZ+7SfdoqnRpZ4cvZHPmlSB7+677HwvLHtmJfZgkP1ViEG9HSjtnXW1tNdOovHyDBOGMy1J8n7Y1eDwM97Ut0m6+vG7fueFW/1oFeV9F9G6+rK1FZFKZKlLQouBu2n1JL7pA+3N0T1Fs3aeNGzlCpr6+nu8Z9PDjIvwpxnBzVlu35Ihe3zCbqfUbDqCd3wI+d9Z7PvyDoGeGnNWPar9spcrBxo06QEHjmz35mzrkCTnk1wt8rieiKKP1fvo0Lb5hTL4OhoihajT52COGaxTuU6Kit8fMvSuEgu+SIOAbT1Pc/aLf+Q/jwpiItNpEhpF7J47s2W7FdlkcTqBQcYdz6JB7GFWbzIj0C75M8Mj5g4/ihhVV0wXI0k7L4ej9a1WdfaCTt9BMPH/8Wmx0nciVPRbtgtrFVaOnzciHnVXhWzOv43vh4T/i6HCL9E0XZdKfm/Xzmgas/cjZNp7BRD0KftmX70EdHRtfj21DI6OiSvqg9jTuuPuFS/BYYzIVy+EYv7J9/z/cfVsH2++YQQ9p0si++XTqSpNvr7DBt7mq2Pk7hfsjJhX1XAPXkBJSqcJqPvUq25NWdDH3H50Vt80N+Xb7ytMYRfpMm861yNf0KE4SSVQjWgLcK0b2rS3YFXUm79xjej57Ij9BaxFKRC4wFMmvIh1R2yU6EFl3cepeW2R0Q/Uug4sgU/Vn9+vBV2//gnw5+44h8bRcidBPQVK7NpYFkqqXWsW7Sf0WE6IuP0/P7Vn8xTq3BtVJt9nQuZUJH03Nw2hvYDtnNF70rT4fOY2ssLu5TPbalRtypX1h3kwcdulEhTBQSKYkClzuEmsjATJfaGaNU7WKyIT/VP/UMxYeQW4bbornigCJF084Ko89FRsTruxSJJF0NFpRHnxHG9qSUliUPjaommU06Kh8ETRIBnoFhz/4HY0LuGGLoj4cX+xKwVH1buLTY9TrWq7pyY3aScqDdyt4hShNBd+k60q/qxCHqUapHzs0XL6p+K3U8zLv3JyROi2JeXxVXlxf8MkVdFw8DfRIf9CUIvFHFz92FR+Osr4nrKMoq4sHWfcFl8TxjZbIb0V3eInzefFHdidcIQ+7f4sUc10WTqaaHLwjaMMsSK6V9sF31OG1L/U+xaul28NeqcCE4UQjyJFJ99tkP0C021TNJd0evjA2LufeXlLRqnOyOmNywr3g5cJi7G60Vs6HzRtVpLMf9C2h9dd3qKaFJ7jDiUlHZ1Je6UmPaut+i/9ZHIQqnZ9vpDUWVNE79iFFGBVQlnaryVwJXo7N6vaihZ1hX70mUoUcQNN2cnSpeyISYyjky3rHaiXusAnFWgdfOhit0trt9NdSGPiyXe1h67rB4ZbWE617ZFg4oS5QtROjKe69ls62rcW/BBhxqULKBFXcCDDm2rcu/yVZ5kb7OZUFHex4VaNsBbTvi66rl6Pynz45opRwICu1HJTkOBKoF0q3GNA4duk/oQqewKYBsXS1xKYQp3136Mr08HVtp8zIDmjuTkTWAOBIcG++c3iioVVmqBLtsdJCo0GjUqtQaNRosGUGs1GAz6zH9ElS12tsmHWKXFSmNAb0i1VgEH7BPjSMjqPqo12Ce3b1QaNVpFwZDNGiWiQ1g6vCvN6/lRz9+fNtNC0Ol06F5zT5mdjTa5Eqqw0oBBEdkPDrUjhZ2TK4LKHmdnGx5HP0oTHCI+jgR7B+xTIkBNyW4/cPTYSjo++oXlh3K2KzQXPOd4diRyS8+otown5cUNrt0zbxenChVZGzmjI3j2UFaIXizdE8zh4GCCRtfBCjNU1GxS8S9+L+URUVHJfXUinuiYJxQs7JSmAiZcCyeyfGUqaNKuqnaqQ70qSVy/FkkOdDy/KDcHy8p4BxysKfQolvOxb/onT2ZXh4Y1bxBy7KEZK6GKQo7WJNx9zD8md1kbiI97QsFynpS0UcGTS2zachLdS8vc3D6LCVM2c8XMXeFGqa0papfIudtZfdYQy8FVa7mcoBAftpK1J8vTMMAlVQVM5NThUCo0DMigl1CFlbUVep0uR08M2Q4Ow83LNBu2k3JjzrI/MYLPRu/EbdgR5t427WtoSrgyyu8JE0bvoNTAXQzJ5kMpw8VFBNb3o37zyRyNP8Q3zfyoV78nP142sfaoivDu+424sm0nESm7Iri1/xgVB+/EY9Edoq5eJGDITty/OM8REzdbpGYFBmvCqTdgB6WHnmB1pg8nbWgweBwVd/alRZvOdO8zn9gK3i/1CgnuHd/E6qBTRJpaawxRjBu/E7eh/2Pa9aes+34XboN38f7BJ6ZVPI0TH7UvzInFuyg5cCf+G2IwKUzULvi6n2NkA2/q9Aqi5KiZ9K6Y6hIRe4CgEC+6dSyLJt3KKtRqEEpOXjcwX29VnqK/Kpa+10bMPJOVvqU3wHBHLH+vomg27bRIynzpXMwgrv/YXbT99qRIzPBznQid3kjUGfK7iMnB7iqVEHIMucWK+43BzbbQOOgHOhXNJQ/zXhPDP1v5auR/2XerCD2X/pojT8llcEiSEW+8QS5JuZVlB4culujIBzxMzKmuGik/sejg0B2fRquadeiz4la6/m/99U2MalUT73JlKOfeiWU30y6hRGxiYKuxHIzLuf1NT8fB0TXpsOBqBsl2yUucnUXH9xZz1cgC4nEw83oE4Fe7Hv1Xpz8O0r+XW3JozUxP2Jrv2BxmwK//t3SoVIrqzqnPA0mc+WEBd1otpF6BN7aTJrGq8h+623Vm4d4ezGqWPlPx6ZFV/BzVnl+DR5BDmdz5hkUfTqu6Uzh6Y0oGnwiiH0ShaDxo+p8edCn10gUy4TBrtjnSem35DPrUcxlVUZq19WDO6p1ENe1C4Zc6pZ7GxqEvXooSuf6LWB7LvK3SHWCcTxncXEvj5lqOTktupNxO6E9MooFbOXqvi0HRHeUrvzK4vXRbpQ/dyxG72tRJEzSC6IOz6dvKD5/KHlSt2YxP/nuYqCzfp+h5eGkXP37Rm89WXDd6u5Ta0wsrGdLMB2+vWnQcv4XraR6Dq3Dy9aPsyT0cjX95TYFBMYBabaE/ZO5mmcdU40mXSbOZPqAeBV/6Bppy7Rk7ayZ9atuh0lag48TZzJo5hHecX4xZiLx0iegy5Smb5mwr0IniNJ+wlgNnL3B8c3+sfx3GjIOJpu2T7gFnt/0fo7sG0CjwO047vsv7TV1MuDLpuRzygOY/hXDmf/OpdWoCE9fdSdN2UBcvj5vmMheuv/QsWnnI6ZNXcXApmSpZTzIXywwOdXFqtu1Kp4YVXgxSSqYqXJ2WXTpT380aVEV5u3VXunRuREX750sI4h/HorKzxy5NhVJTvEEg7/mXxVGrwqZMG9r76Qi//CCTRu4Tzq0YSod3WjBy0308P/6RPUe2MX/0+9Qpacq4NTUlW/aidWlrtM6+BHZy56+9IaTpJ1DZUcA2nthU/zRcXEi3GrX4ZJc7gz+uS1YHPEqZs8zgyBYV9o4OiPh4EtI8/hTEnVvNF4HNaejvRz3/BozbGUeSLrM0eAOPbl3mtlICz8peeHq44pSllpwa5yLOybnJago5O6M8iiE2TS53AnEJ9jik6jzQeAxg7Ylg5ta9wNJVZ0zLb5KyJB8Gh5oilSpR6OZVbqRuEOj/ZunImdx7dz6/HT7K4eD9TGlqhyrTdDx76o3bwaEtXxKgPszMrvVo1H0k8zef4O4TU5IPFKIjo5NLUYiJjkbt5Ixjql9GuX+V64YKeLi9FHXaovjX9eBB+HVMvPmTssAigyPp2iE2rV/Hpv1XSEQQfeZ3Nq5fz28nI0zq59dWa0Td+GMcu5166XhiEwrgWsmVAmrQ3wpi0+F4k1OkbVzq0Hnk/7H5yB4W9HLn9toRjPj5mgkNcoW7O1aw/VYShpgQVm26Ro3GvqTcBSJ4eDSYazUb42effm0rayvQJ732AVD5kQV25QriQhYzdtT+lGluHgV9y6ggNcV6raJ5zWKZR7xdfbq3ncI3267SZ3DFZ41mbQ36jG3Ap+Na0LZQMRyKVMezWkHuZ3X3tEXwbj2Qaa37o9cLExrkWir6FWNnb1/G3dJQqeNk5r1X8sV3UCL4c9tFAgLnpevGfZbKrQJzjNST0su5BODcxXBvo+jfcow4EPum9+TVkkJniQ5dFoorRiagSDowStQJmCiOxmX8ufTvyaxcS/f0b34dM5alIZFUGrKWBT1KW+a9ci4kg0OSjJAnGUkyQgaHJBkhg0OSjJDBkSOS+GNQJcqV78kak6cJkd40GRySZIQMDlMp/7C0Uznc3+7N5Mk9aOBdnkpeTZlxQg88JTzoSwIbVMWzfCXqNP+I7w49S1hM2j4AzzLu9A9KQCQdYKyPK25lvBmxOwkM4Sxq54Z7rfEc0YE+ZCL13NxoM//SsyfrRst8SviCNlRwq8WHowbSonoFvP0DWXzGlOkyEzm15BM61K9OFU9PajbqydSdN2VuVgZkcGSRiN7DpuOl6DZ2EmP7BuBiBU9Pzabfpz9xzrEFQ8f2x085xLwBI9lwV0Fb7QOmzp7JBz7WqLQedJ00h1mzp9Dd2/TkhIzKBMAQQeitsvQe3IKi9w4wf9EeMh/1a8DgVJfPftrPqb/Psn1CWfaM/IptUalu9/SnmBrgRo3RB16aYTF/scD0kTfM2p/hi6cTmPICCT0hE7cSLsrT94txBFbW8rREOAcH7+C3/dF0fd+Pjl1rYLv/S5aHlaBm2650ef7CGFPnhUhXpoHww4C6II0/+pRuAccIXRTEurt3iFKgwCtPeQWo/d6HKX8VD+hAA6exXLplgMLPq4MNzmXcKVfUNkdnNc9tZHBkkapAGVwLp659eiIjolD0t1nSpRpLUv6vJSoiCoUi2R6Km77M5x/Y41BAAyorrKxUCMWAkml7/ynh22YydfGf/B2VhCCJxw9s6Z76EqH1ot/KvfTL5n5bOhkcWaVSvXQvqsW5SCFUWgd6zv2GNsWff6rCztU1ZVlV8ik4Td1VqZ8lDhr0GAAlIYFEAYUyLfPfU26v5osv/sLv560s9CmEVh/CpAYjZeJiBmSbI9u0vN22NWW5yh/Lt3Is7ALnTuxjw/z57I2wfjGIqbAzan0YQQt/Yf36LRy/q4C6MC4lbBAPj7Bx5UYWLNvDw9c8t45IjCfeqiQV3Z3QohC1fwO7775UqIjk0ILP+XLFmdzzgs83QAaHGdj6juGHeX3wfrSLRVO+YsaCzZy38qRyylz6WnwCh9HWS0PosomMHvE5a8L0gAON+w+hfvEIdsz5nsvFvCn6mmcR0ZTvzqhuMcxp25zOXbszem9Bqrq+VKgSw9nfV7Eh+LbJzaK8SCYeSunFbWOQ32Qc/283Uxtm8lbPPEy2OaR0dKEhnPfsy7J38m9ggLxySJJRss0hSUbI4JAkIywzOPQhTG/li69/S0asN2WGD0nKOgtucwge/TaIJgs8Wb1tKBXlRMqSmVnmlQMAFfalSuOUGEu8hYa3lLtZcHAAahUqxSBvq6TXwqKDQ13MhWLRoZy6/vRN74qUB1l2cJToxKCuMcxpVg3/4TtMGMsgSaaz6CfkImYnP22woV/QXwyrapevxx5I5mfRVw7D7XBuOtaibmUZGJL5WXRwYNCjt7KWL26RXgsLDw4FxYwDgSQpNQuuV3oeXLxItHNxMhpBKknZZZnVSh/C9Fbv0O1n6DG4HS6W+S2kXM6C00ck6fWS51xJMkIGhyQZkceC4zEb+5THzbU0bq6lqdj9F+6ZeTYP8TiYeT0C8Ktdj/6rb5n0gk7JMuWx4LClVp8ZzJrRl5q2r+ex4NMjq/g5qj3Lgg+z6H35irG8LI/9tlaUrd+ZLp3rU/Y1JcY8jY1DX7wUJeT4kTzPQoPD+Kzmr6YQeWgOHzX1oXI5d7zfrkeHcUE8n9NMiQ5h8cBW+HmWw6NKXbqNX8+lxNTrCwyKAdRqSz1wUhZY5G/8qlnNX0n/F0vG/5f9unqM/O98pozogpc2nicCUO6xeeRHTP/jId4fjmN4F1eu/zqK/rOPk5IQrzzk9MmrOLiUxF4mc+V5FpiVq+f0llfNal7kFUmIevR6ELooHsTb4dusP+17PZtJXETsZvOBh9g2HM+kga1xUPx4crwd323/ndCxtalxdSE9us3ipMqfrzfVlflc+YAFXjmez2p+mSVdqlHN24vaA7fwUDEkz2r+Ctqa9Jn4ITU1J1gyphdtfWvQfPgW/tGDITKCSEUQv2sU9by9qFa1FXND9SiREUQpoPEYwNoTwcyte4Glq87Il73kAxZ45TBhVnOVNdbWKkTis1nLU69buuXXrGvxOdFXjrFt7mgmbZ7Dr73aMLpkYZzVahwbjeX7AT4vrgzqwlR6fpS0RfGv68GDPddJpAb5ez7AvM8ig+Pttq0pu+on/li+lWKtKmOXeJcLwWGUHvkL1UoDGjfKl9NgCF3HnIWONChRFK9mzfCyD+OHTxcRVb0+VUrZkKATgBYrK1AXa0KbutM5GrKOlZ4q/IsLYq7/xcH4liyrUymldCtrK9AnoRMgB5HkbRYYHM9nNVfxzXdbWDRlLXqbYlSo045mz2c1V5ehy8jBHBi1lB0zxrJN48Gw3xvj5eFIMYe7rFn0NT9FJ6J2cqfBoC/5wEsL6tJ0n7uM2K+/ZcWqmexJ0ODoWpX6H7pjkxIEqmfv01CEfJ9FPiATD7NId3A09SfY8t32r/G1f9N7I71OFtggf7OsfHszzOc045rWo/+vMn0kL5NXDkkyQl45JMkIGRySZIQMjvxGH8qMJgFMPiEfY2ZGBkeOSOKPQZUoV74nayJlE89SyOCQJCNkcJhK+Yelncrh/nZvJk/uQQPv8lTyasqME3pelUKftH0AnmXc6R+UgEg6wFgfV9zKeDNidxIYwlnUzg33WuM5ogN9yETqubnRZv6lZzPHGy3zKeEL2lDBrRYfjhpIi+oV8PYPZPGZBBO/jJ6b28bQvnZlvH3eZdiK85i6Zn4igyOLRPQeNh0vRbexkxjbNwAXq1en0GurfcDU2TP5wMcaldaDrpPmMGv2FLp7m56ckFGZABgiCL1Vlt6DW1D03gHmL9pj2mTayh2OhVdh5oFzhCxvx91ZI1l2MdWLHPSnmBrgRo3RB9Bl5eDkMRaZPvJGWfszfPF0Aks8P6/oCZn4qhR6Pzp2rYHt/i9ZHlaCmm270qVIcj6KqS8WSVemgfDDgLogjT/6lG4BxwhdFMS6u3eIUqBApqc8RwICu1HJTgNVAulW43vWHLrNQI8yyWdLG5zLuFOuqG2+Th+TwZFFqgJlcE0zxeLzFPrbLOlSjSUp/9cmp9AXIbsjatOX+fwDexwKaEBlhZWVCqEYUExp76sdKexsnbINZ2cbHkc/QiH5VkLrRb+Ve+mXzf22dDI4sird3LwmpNA/Ww0gbcKiSv0skdGgxwAoCc9S7AtlWmY2KY+IikoCtCDiiY55QkEvJ3mP/RJ5PLItOYWeq/yxfCvHwi5w7sQ+Nsyfz94I6+TbEjWFCjuj1ocRtPAX1q/fwvG7CqgL41LCBvHwCBtXbmTBsj08zJFkrVgOrlrL5QSF+LCVrD1ZnoYBLi8qg4jk0ILP+XLFGZJyYndyKRkcZvAshb4P3o92sWjKV8xYsJnzVp5Ufp5CjxafwGG09dIQumwio0d8zpowPeBA4/5DqF88gh1zvudyMW+K5sSsJmoXfN3PMbKBN3V6BVFy1Ex6p34drxLD2d9XsSH4dr5+36JMPJTSi9vGIL/JOP7fbqY2zL/jHWWbQ0pHFxrCec++LHsn/wYGyCuHJBkl2xySZIQMDkkywjKDQx/C9Fa++Pq3ZMT6a/m6R0V6fSy4zSF49NsgmizwZPW2oVSUEztLZmaZVw4AVNiXKo1TYizxFhreUu5mwcEBqFWoFIO8rZJeC4sODnUxF4pFh3Lq+tPMF5akLLLs4CjRiUFdY5jTrBr+w3eYNpZBkkxk0U/IRcxOftpgQ7+gvxhW1S5fjz2QzM+irxyG2+HcdKxF3coyMCTzs+jgwKBHb2UtXyQjvRYWHhwKirkHAklSMguuV3oeXLxItHNxMhpBKknZZZnVSh/C9Fbv0O1n6DG4HS6W+S2kXM6C00ck6fWS51xJMkIGhyQZkf3gkOnjUh5lpjaHTB+X8h4z3VbJ9HEp7zFfm0Omj0t5jNmCQ6aPS3mN+YJDpo9LeYzZUtZl+riU15jtyiHTx6W8xnwNcpk+LuUxZgwOmT4u5S1mqssyfVzKe8yUPiLTx6W8R6asS5IR8jwvSUbI4JAkI2RwSJIRMjgkyQgZHJJkhAwOSTJCBockGSGDQ5KMkMEhSUbI4JAkI2RwSJIRMjgkyQgZHJJkhAwOSTJCBockGSGDQ5KMkMEhSUaYLThE3D+07nOUlQnm2uIbZAhnWfe2zApNSvfR01MnKf7VFcItffykEseMCTvoe0Z5/WXpQ5nRJIDJJ/TGdoYby96n/bRTGJsv88nZH/mkSR386r7HwvPGtmNeZgsO1VuFGNDTjdrWWVtPd+ksHiPDOJGLJtmN2/c9K97qQa8q6b+M1tWVqa2KUiRLWxRcDNpPqSX3SR9ub4jqLZq18aJnqSzOMqa7x38+Oci8CHOeHdSU7fohFbbPJ+h+RsGqJ3TDj5z3nc2+I+sY4GW2uQgz2StzsXKgTZMSeOTMfr8+Ioo/V++jQtvmFMvg6GiKFqNPnYI4WvrMdSorfHzL0rhILvkiDgG09T3P2i3/ZDAZuSAuNpEipV3I4rk3W7IfHCKJ1d/vwm3Q79j/56XbKsMjJo7ZSeeVZ+nw9T4qDtxFm98fkgCgj2D46J1UnHOda/eu0W7YTtyG7OHT0Mwu8zr+N74OjTp2o2F1H7pO+JahjapQvfHn7I0RoL/Ims8607iGF96VqxHQZRwbLz95tqtRfzIqoDGTgmMRgIjcwWf1mzH1ePyLzSeEsO9kWXzrOKWduVF/n2Ejd+L2yTZsv0x7W6VEhdOo72GGrTtO4y924zrkEF+EJSEAffhFGgz9kyZbHxFx5CSVBu/E7dOTrInN/NAqt37j6x5N8KvigXeVOrQf+hNnYrN7xhZc3hlMhcF/4Nxr+0u3VQq7f/yDat+H0W/aQd4e+gdV5t/gkgEQOtYt3IXbZ6fYFPeQb776E7fBf/LOxhhMu8nRc3PbGNrXroy3z7sMW3GetHfgttSoW5Ur+w/yIF0VECiKAZU6h5vIwkyU2BuiVe9gsSI+1T/1D8WEkVuE26K74oEiRNLNC6LOR0fF6rgXiyRdDBWVRpwTx/WmlpQkDo2rJZpOOSkeBk8QAZ6BYs39B2JD7xpi6I4EIXRnxeYlO0RYRILQ66PFiemtRdWOi8U1gxBCKOLhwfGiaaMvxKGYe2LbwLqi7czTIiHV1nXnZ4uW1T8Vu59mXPqTkydEsS8vi6vKi/8ZIq+KhoG/iQ77E4ReKOLm7sOi8NdXxPWUZRRxYes+4bL4njCy2Qzpr+4QP28+Ke7E6oQh9m/xY49qosnU00KXhW0YZYgV07/YLvqcNqT+p9i1dLt4a9Q5EZwohHgSKT77bIfoF5pqmaS7otfHB8Tc+8rLWzROd0ZMb1hWvB24TFyM14vY0Pmia7WWYv6FtD+67vQU0aT2GHEoKe3qStwpMe1db9F/6yORhVKz7fWHosqaJn7FKKICqxLO1HgrgSvR2T37aShZ1hX70mUoUcQNN2cnSpeyISYyDqGtQoePW+BV1BaNphBvd2pBuRuXuWEAUFHwnXFMaRzCF917Me1Od6YNrY5t6k3HxRJva49dVo+MtjCda9uiQUWJ8oUoHRnP9Wy2dTXuLfigQw1KFtCiLuBBh7ZVuXf5Kk+yt9lMqCjv40ItG+AtJ3xd9Vy9/+wqmD2OBAR2o5KdhgJVAulW4xoHDt0m9SFS2RXANi6WuJTCFO6u/Rhfnw6stPmYAc0dc3Qe5hwIDg32z28UVSqs1AJdtjtIVGg0alRqDRqNFg2g1mowGPQI/R32zR1A50b+1PX3I6DHIi4+SUKXcsALUKNbOwpeuoZbp854vnwTW8AB+8Q4ErK6j2oN9skTBas0arSKgiGbNUpEh7B0eFea1/Ojnr8/baaFoNPpUn2X18PORptcCVVYacCgiOwHh9qRws7JB1tlj7OzDY+jH6UJDhEfR4K9A/YpEaCmZLcfOHpsJR0f/cLyQznbFZoLnnM8OxLm+r0f7/iGETuK8+nagxwJPsrBVZ9QMXUngf4Kyyeuwr57ex4vmMjm22mjQFvGk/LiBtfumbeLU4WKrE2fpyN49lBWiF4s3RPM4eBggkbXwQozVNRsUvEvfi/lEVFRyX11Ip7omCcULOyUpgImXAsnsnxlKrz0Tkm1Ux3qVUni+rVIcqDj+UW5OVhWxjvgYE2hR7Gcz3ZDE0Cgi4/FUKQCFYtYgYjl9IbfuZTSYkziwuJRLLUezLRvvmV6jwfMGruKG6lblHZ1aFjzBiHHHpqxEqoo5GhNwt3H/GNyl7WB+LgnFCznSUkbFTy5xKYtJ9G9tMzN7bOYMGUzV3KqK1xtTVG7RM7dzuqzhlgOrlrL5QSF+LCVrD1ZnoYBLqkqYCKnDodSoWFABr2EKqysrdDrdDl6Ysh2cBhuXqbZsJ2UG3OW/YkRfDZ6J27DjjD3tmlfQ1PClVF+T5gwegelBu5iSF1JXEYAABJASURBVLYeSqlwbjOCIfa/8H6zdrzXbQBrVN4pV47EM98xerkTn015nzIaayr3n8EH8fMY89OlF5VOVYR332/ElW07iUjZFcGt/ceoOHgnHovuEHX1IgFDduL+xXmOmFgpi9SswGBNOPUG7KD00BOszrS3yoYGg8dRcWdfWrTpTPc+84mt4P3S24YE945vYnXQKSJNrTWGKMaN34nb0P8x7fpT1n2/C7fBu3j/4BPTKp7GiY/aF+bE4l2UHLgT/w0m9lapXfB1P8fIBt7U6RVEyVEz6Z36tcOxBwgK8aJbx7KkfxmxCrUahJKT1w3M11uVp+iviqXvtREzz2Slb+kNMNwRy9+rKJpNOy2SMl86FzOI6z92F22/PSkSM/xcJ0KnNxJ1hvwuYnKwu0pOJG3J4n5jcLMtNA76gU5Fc8nDvNfE8M9Wvhr5X/bdKkLPpb/myFNyGRySZMQbb5BLUm5l2cGhiyU68gEPE3NR1qKUZ1h0cOiOT6NVzTr0WXErXf+3/vomRrWqiXe5MpRz78Sym2mXUCI2MbDVWA6+0Rem6zg4uiYdFlzNINkueYmzs+j43mKuGllAPA5mXo8A/GrXo//q9MdB+vcsPYfWCD1ha75jc5gBv/7f0qFSKao7pz4PJHHmhwXcabWQegXe2E6axKrKf+hu15mFe3swq5lDus+fHlnFz1Ht+TV4BDmUyZ1vWPThtKo7haM3pmTwiSD6QRSKxoOm/+lBl1IvXSATDrNmmyOt15bPoE89l1EVpVlbD+as3klU0y4UfqlT6mlsHPripSiR67+I5bHM2yrdAcb5lMHNtTRuruXotORGyu2E/sQkGriVo/e6GBTdUb7yK4PbS7dV+tC9HLGrTZ00QSOIPjibvq388KnsQdWazfjkv4eJyuw+RTzkt/E9GT1/G2cjdZksnLGnF1YypJkP3l616Dh+C9fTbEaFk68fZU/u4Wj8y2sKDIoB1GoL/SFzN8s8phpPukyazfQB9Sj40jfQlGvP2Fkz6VPbDpW2Ah0nzmbWzCG8k3JbpRB56RLRZcpTNs3ZVqATxWk+YS0Hzl7g+Ob+WP86jBkHE1+9LyoH/Lt3ofT15Qxq7E+HwbPYePxOFjJn9VwOeUDzn0I487/51Do1gYnr7qRpO6iLl8dNc5kL1196Fq085PTJqzi4lEyVrCeZi2UGh7o4Ndt2pVPDCmnTzQFV4eq07NKZ+m7WoCrK26270qVzIyraP19CEP84FpWdPXZpKpSa4g0Cec+/LI5aFTZl2tDeT0f45QeZNHI1FK7WkaGz17P/yHpG+CWx9+uONGz+CQtDTMnPUlOyZS9al7ZG6+xLYCd3/tobQpp+ApUdBWzjiU31T8PFhXSrUYtPdrkz+OO6WGVajpRVlhkc2aLC3tEBER9PQpqaK4g7t5ovApvT0N+Pev4NGLczjiSd3uRkN7V9SSpU9sLLqwxWD67wT5Qp4yDUOBdxTs5NVlPI2RnlUQyxaXK5E4hLsMchVeeBxmMAa08EM7fuBZauOmPiaDwpKyy6Qf7vqClSqRKFfr7KDQM4PT8C+r9ZOnIm93qs4bfAShRQP2Hn4NosNKF66yLPsmfTWtat/Z1zVrXoGDiUlRPrU7aAKfc6CtGR0cmlKMRER6N2csYx1WlLuX+V64YKBLi99HNpi+Jf14MHe66TSA3S92VJ2WGRwZF07RC/nbiL7vIVEhFEn/mdjeuLYuvegFY1i2V6OdRWa0Td+Pkcu61QvezzpeOJTSiAayVXCqhBfyuITYfjEV6ZbEzEsGV8P1bbdiFw+nYW1irJW1n6Ngp3d6xg+0c+tLY/yapN16jxH19S7gIRPDwazLWazfGzT7+2lbUV6JMHc8l2h1lZYHAI4kIWM3bU/pRpbh4FfcuoIDXFeq2iuQnBgV19uredwjfbrtJncMVn3bnaGvQZ24BPx7WgbaFiOBSpjme1gtzPbFsqJzouOEhX7b89lFoq+hVjZ29fxt3SUKnjZOa9V/LFd1Ai+HPbRQIC56Xrxn2Wyq0Cc4zUk9LLuQTg3MVwb6Po33KMOBD7pvfk1ZJCZ4kOXRaKK0YmoEg6MErUCZgojsZl/Ln078msXEv39G9+HTOWpSGRVBqylgU9SufHXpbXQgaHJBkhTzKSZIQMDkkyQgaHJBkhgyNHJPHHoEqUK9+TNSZPEyK9aTI4JMkIGRymUv5haadyuL/dm8mTe9DAuzyVvJoy44QeeEp40JcENqiKZ/lK1Gn+Ed8depawmLR9AJ5l3OkflIBIOsBYH1fcyngzYncSGMJZ1M4N91rjOaIDfchE6rm50Wb+pWcjA42W+ZTwBW2o4FaLD0cNpEX1Cnj7B7L4jCnTZSZyaskndKhfnSqentRs1JOpO2/K3KwMyODIIhG9h03HS9Ft7CTG9g3AxQqenppNv09/4pxjC4aO7Y+fcoh5A0ay4a6CttoHTJ09kw98rFFpPeg6aQ6zZk+hu7fpT9QzKhMAQwSht8rSe3ALit47wPxFe8h81K8Bg1NdPvtpP6f+Psv2CWXZM/IrtkWlut3Tn2JqgBs1Rh/g341QyRssMH3kDbP2Z/ji6QSWeH5e0RMycSvhojx9vxhHYGUtT0uEc3DwDn7bH03X9/3o2LUGtvu/ZHlYCWq27UqX5y+MMXVeiHRlGgg/DKgL0vijT+kWcIzQRUGsu3uHKAUKvPKUV4Da732Y8lfxgA40cBrLpVsGKPy8OtjgXMadckVt83W6lgyOLFIVKINr4dS1T09kRBSK/jZLulRjScr/tURFRKFQJNtDcdOX+fwDexwKaEBlhZWVCqEYUDJt7z8lfNtMpi7+k7+jkhAk8fiBLd1TXyK0XvRbuZd+2dxvSyeDI6tUqpfuRbU4FymESutAz7nf0Kb4809V2Lm6piyrSj4Fp6m7KvWzxEGDHgOgJCSQKKBQpmX+e8rt1XzxxV/4/byVhT6F0OpDmNRgpExczIBsc2SblrfbtqYsV/lj+VaOhV3g3Il9bJg/n70R1i8GMRV2Rq0PI2jhL6xfv4XjdxVQF8alhA3i4RE2rtzIgmV7ePia59YRifHEW5WkorsTWhSi9m9g992XChWRHFrwOV+uOJN7XvD5BsjgMANb3zH8MK8P3o92sWjKV8xYsJnzVp5UTplLX4tP4DDaemkIXTaR0SM+Z02YHnCgcf8h1C8ewY4533O5mDdFX/MsIpry3RnVLYY5bZvTuWt3Ru8tSFXXlwpVYjj7+yo2BN82uVmUF8nEQym9uG0M8puM4//tZmrD/Du+ULY5pHR0oSGc9+zLsnfyb2CAvHJIklGyzSFJRsjgkCQjLDM49CFMb+WLr39LRqy/lq97VKTXx4LbHIJHvw2iyQJPVm8bSkU5kbJkZpZ55QBAhX2p0jglxhJvoeEt5W4WHByAWoVKMcjbKum1sOjgUBdzoVh0KKeuP33TuyLlQZYdHCU6MahrDHOaVcN/+A4TxjJIkuks+gm5iNnJTxts6Bf0F8Oq2uXrsQeS+Vn0lcNwO5ybjrWoW1kGhmR+Fh0cGPTorazli1uk18LCg0NBMeNAIElKzYLrlZ4HFy8S7VycjEaQSlJ2WWa10ocwvdU7dPsZegxuh4tlfgspl7Pg9BFJer3kOVeSjJDBIUlG5LHgeMzGPuVxcy2Nm2tpKnb/hXtmns1DPA5mXo8A/GrXo//qW5m8o1yyZHksOGyp1WcGs2b0pabt63ks+PTIKn6Oas+y4MMsel++Yiwvy2O/rRVl63emS+f6lH1NiTFPY+PQFy9FCTl+JM+z0OAwPqv5qylEHprDR019qFzOHe+369FhXBDP5zRTokNYPLAVfp7l8KhSl27j13MpMfX6AoNiALXaUg+clAUW+Ru/albzV9L/xZLx/2W/rh4j/zufKSO64KWN54kAlHtsHvkR0/94iPeH4xjexZXrv46i/+zjpCTEKw85ffIqDi4lsZfJXHmeBWbl6jm95VWzmhd5RRKiHr0ehC6KB/F2+DbrT/tez2YSFxG72XzgIbYNxzNpYGscFD+eHG/Hd9t/J3RsbWpcXUiPbrM4qfLn6011ZT5XPmCBV47ns5pfZkmXalTz9qL2wC08VAzJs5q/grYmfSZ+SE3NCZaM6UVb3xo0H76Ff/RgiIwgUhHE7xpFPW8vqlVtxdxQPUpkBFEKaDwGsPZEMHPrXmDpqjPyZS/5gAVeOUyY1VxljbW1CpH4bNby1OuWbvk161p8TvSVY2ybO5pJm+fwa682jC5ZGGe1GsdGY/l+gM+LK4O6MJWeHyVtUfzrevBgz3USqUH+ng8w77PI4Hi7bWvKrvqJP5ZvpVirytgl3uVCcBilR/5CtdKAxo3y5TQYQtcxZ6EjDUoUxatZM7zsw/jh00VEVa9PlVI2JOgEoMXKCtTFmtCm7nSOhqxjpacK/+KCmOt/cTC+JcvqVEop3craCvRJ6ATIQSR5mwUGx/NZzVV8890WFk1Zi96mGBXqtKPZ81nN1WXoMnIwB0YtZceMsWzTeDDs98Z4eThSzOEuaxZ9zU/Riaid3Gkw6Es+8NKCujTd5y4j9utvWbFqJnsSNDi6VqX+h+7YpASB6tn7NBQh32eRD8jEwyzSHRxN/Qm2fLf9a3zt3/TeSK+TBTbI3ywr394M8znNuKb16P+rTB/Jy+SVQ5KMkFcOSTJCBockGSGDI7/RhzKjSQCTT8jHmJmRwZEjkvhjUCXKle/JmkjZxLMUMjgkyQgZHKZS/mFpp3K4v92byZN70MC7PJW8mjLjhJ5XpdAnbR+AZxl3+gclIJIOMNbHFbcy3ozYnQSGcBa1c8O91niO6EAfMpF6bm60mX/p2czxRst8SviCNlRwq8WHowbSonoFvP0DWXwmwcQvo+fmtjG0r10Zb593GbbiPKaumZ/I4MgiEb2HTcdL0W3sJMb2DcDF6tUp9NpqHzB19kw+8LFGpfWg66Q5zJo9he7epicnZFQmAIYIQm+VpffgFhS9d4D5i/aYNpm2codj4VWYeeAcIcvbcXfWSJZdTPUiB/0ppga4UWP0AXRZOTh5jEWmj7xR1v4MXzydwBLPzyt6Qia+KoXej45da2C7/0uWh5WgZtuudCmSnI9i6otF0pVpIPwwoC5I448+pVvAMUIXBbHu7h2iFCiQ6SnPkYDAblSy00CVQLrV+J41h24z0KNM8tnSBucy7pQrapuv08dkcGSRqkAZXNNMsfg8hf42S7pUY0nK/7XJKfRFyO6I2vRlPv/AHocCGlBZYWWlQigGFFPa+2pHCjtbp2zD2dmGx9GPUEi+ldB60W/lXvplc78tnQyOrEo3N68JKfTPVgNIm7CoUj9LZDToMQBKwrMU+0KZlplNyiOiopIALYh4omOeUNDLSd5jv0Qej2xLTqHnKn8s38qxsAucO7GPDfPnszfCOvm2RE2hws6o9WEELfyF9eu3cPyuAurCuJSwQTw8wsaVG1mwbA8PcyRZK5aDq9ZyOUEhPmwla0+Wp2GAy4vKICI5tOBzvlxxhqSc2J1cSgaHGTxLoe+D96NdLJryFTMWbOa8lSeVn6fQo8UncBhtvTSELpvI6BGfsyZMDzjQuP8Q6hePYMec77lczJuiOTGridoFX/dzjGzgTZ1eQZQcNZPeqV/Hq8Rw9vdVbAi+na/ftygTD6X04rYxyG8yjv+3m6kN8+94R9nmkNLRhYZw3rMvy97Jv4EB8sohSUbJNockGSGDQ5KMsMzg0IcwvZUvvv4tGbH+Wr7uUZFeHwtucwge/TaIJgs8Wb1tKBXlxM6SmVnmlQMAFfalSuOUGEu8hYa3lLtZcHAAahUqxSBvq6TXwqKDQ13MhWLRoZy6/jTzhSUpiyw7OEp0YlDXGOY0q4b/8B2mjWWQJBNZ9BNyEbOTnzbY0C/oL4ZVtcvXYw8k87PoK4fhdjg3HWtRt7IMDMn8LDo4MOjRW1nLF8lIr4WFB4eCYu6BQJKUzILrlZ4HFy8S7VycjEaQSlJ2WWa10ocwvdU7dPsZegxuh4tlfgspl7Pg9BFJer3kOVeSjJDBIUlGZD84ZPq4lEeZqc0h08elvMdMt1UyfVzKe8zX5pDp41IeY7bgkOnjUl5jvuCQ6eNSHmO2lHWZPi7lNWa7csj0cSmvMV+DXKaPS3mMGYNDpo9LeYuZ6rJMH5fyHjOlj8j0cSnvkSnrkmSEPM9LkhEyOCTJCBkckmSEDA5JMkIGhyQZIYNDkoyQwSFJRsjgkCQjZHBIkhH/DxWp+YsMmPvXAAAAAElFTkSuQmCC;" vertex="1" parent="WIyWlLk6GJQsqaUBKTNV-1">
          <mxGeometry x="40" y="40" width="279.04" height="380" as="geometry" />
        </mxCell>
        <mxCell id="v64UHi4T5bfzc9dEQ9kJ-4" value="" style="shape=curlyBracket;whiteSpace=wrap;html=1;rounded=1;flipH=1;labelPosition=right;verticalLabelPosition=middle;align=left;verticalAlign=middle;strokeWidth=4;" vertex="1" parent="WIyWlLk6GJQsqaUBKTNV-1">
          <mxGeometry x="340" y="50" width="20" height="170" as="geometry" />
        </mxCell>
        <mxCell id="v64UHi4T5bfzc9dEQ9kJ-5" value="" style="shape=curlyBracket;whiteSpace=wrap;html=1;rounded=1;flipH=1;labelPosition=right;verticalLabelPosition=middle;align=left;verticalAlign=middle;strokeWidth=4;" vertex="1" parent="WIyWlLk6GJQsqaUBKTNV-1">
          <mxGeometry x="340" y="240" width="20" height="170" as="geometry" />
        </mxCell>
        <mxCell id="v64UHi4T5bfzc9dEQ9kJ-7" value="" style="endArrow=classic;html=1;rounded=0;exitX=0.1;exitY=0.5;exitDx=0;exitDy=0;exitPerimeter=0;strokeWidth=4;" edge="1" parent="WIyWlLk6GJQsqaUBKTNV-1" source="v64UHi4T5bfzc9dEQ9kJ-4">
          <mxGeometry width="50" height="50" relative="1" as="geometry">
            <mxPoint x="390" y="430" as="sourcePoint" />
            <mxPoint x="560" y="230" as="targetPoint" />
          </mxGeometry>
        </mxCell>
        <mxCell id="v64UHi4T5bfzc9dEQ9kJ-8" value="" style="endArrow=classic;html=1;rounded=0;exitX=0.1;exitY=0.5;exitDx=0;exitDy=0;exitPerimeter=0;entryX=0.005;entryY=0.721;entryDx=0;entryDy=0;entryPerimeter=0;strokeWidth=4;" edge="1" parent="WIyWlLk6GJQsqaUBKTNV-1" source="v64UHi4T5bfzc9dEQ9kJ-5" target="v64UHi4T5bfzc9dEQ9kJ-3">
          <mxGeometry width="50" height="50" relative="1" as="geometry">
            <mxPoint x="368" y="145" as="sourcePoint" />
            <mxPoint x="570" y="240" as="targetPoint" />
          </mxGeometry>
        </mxCell>
        <mxCell id="v64UHi4T5bfzc9dEQ9kJ-9" value="Função que&lt;div&gt;calcula o valor mínimo&lt;/div&gt;&lt;div&gt;entre três inteiros&lt;/div&gt;" style="text;html=1;align=center;verticalAlign=middle;whiteSpace=wrap;rounded=0;fontSize=15;fontStyle=1" vertex="1" parent="WIyWlLk6GJQsqaUBKTNV-1">
          <mxGeometry x="360" y="90" width="166" height="30" as="geometry" />
        </mxCell>
        <mxCell id="v64UHi4T5bfzc9dEQ9kJ-10" value="Função que&lt;div&gt;calcula o valor máximo&lt;/div&gt;&lt;div&gt;entre três inteiros&lt;/div&gt;" style="text;html=1;align=center;verticalAlign=middle;whiteSpace=wrap;rounded=0;fontSize=15;fontStyle=1" vertex="1" parent="WIyWlLk6GJQsqaUBKTNV-1">
          <mxGeometry x="360" y="341" width="166" height="30" as="geometry" />
        </mxCell>
      </root>
    </mxGraphModel>
  </diagram>
</mxfile>
